<?xml version="1.0" standalone="no"?><!DOCTYPE svg PUBLIC "-//W3C//DTD SVG 1.1//EN" "http://www.w3.org/Graphics/SVG/1.1/DTD/svg11.dtd"><svg t="1718725330698" class="icon" viewBox="0 0 1024 1024" version="1.1" xmlns="http://www.w3.org/2000/svg" p-id="1513" xmlns:xlink="http://www.w3.org/1999/xlink" width="200" height="200"><path d="M512 689.013333a200.96 200.96 0 0 0 200.96-200.96V243.626667a200.96 200.96 0 0 0-401.92 0v244.426666A200.96 200.96 0 0 0 512 689.013333zM385.706667 243.626667a126.293333 126.293333 0 0 1 252.586666 0v244.426666a126.293333 126.293333 0 1 1-252.586666 0z" p-id="1514"></path><path d="M554.026667 821.866667A341.76 341.76 0 0 0 853.333333 488.64a5.333333 5.333333 0 0 0-5.333333-5.333333h-64a5.333333 5.333333 0 0 0-5.333333 5.333333 266.666667 266.666667 0 0 1-533.333334 0 5.333333 5.333333 0 0 0-5.333333-5.333333H176a5.333333 5.333333 0 0 0-5.333333 5.333333 341.76 341.76 0 0 0 299.306666 333.226667 5.333333 5.333333 0 0 1 4.693334 5.333333V901.333333a5.333333 5.333333 0 0 1-5.333334 5.333334H410.666667a5.333333 5.333333 0 0 0-5.333334 5.333333v64a5.333333 5.333333 0 0 0 5.333334 5.333333h202.666666a5.333333 5.333333 0 0 0 5.333334-5.333333v-64a5.333333 5.333333 0 0 0-5.333334-5.333333h-58.666666a5.333333 5.333333 0 0 1-5.333334-5.333334v-74.186666a5.333333 5.333333 0 0 1 4.693334-5.28z" p-id="1515"></path></svg>