<?xml version="1.0" standalone="no"?><!DOCTYPE svg PUBLIC "-//W3C//DTD SVG 1.1//EN" "http://www.w3.org/Graphics/SVG/1.1/DTD/svg11.dtd"><svg t="1718756182020" class="icon" viewBox="0 0 1171 1024" version="1.1" xmlns="http://www.w3.org/2000/svg" p-id="3122" xmlns:xlink="http://www.w3.org/1999/xlink" width="228.7109375" height="200"><path d="M658.285714 512q0-59.428571-23.142857-113.428571t-62.571429-93.428571-93.428571-62.571429-113.428571-23.142857-113.428571 23.142857-93.428571 62.571429-62.571429 93.428571-23.142857 113.428571 23.142857 113.428571 62.571429 93.428571 93.428571 62.571429 113.428571 23.142857 113.428571-23.142857 93.428571-62.571429 62.571429-93.428571 23.142857-113.428571zm438.857143 0q0-59.428571-23.142857-113.428571t-62.571429-93.428571-93.428571-62.571429-113.428571-23.142857l-220.571429 0q68 51.428571 107.714286 128t39.714286 164.571429-39.714286 164.571429-107.714286 128l220.571429 0q59.428571 0 113.428571-23.142857t93.428571-62.571429 62.571429-93.428571 23.142857-113.428571zm73.142857 0q0 74.285714-29.142857 142t-78 116.571429-116.571429 78-142 29.142857l-438.857143 0q-74.285714 0-142-29.142857t-116.571429-78-78-116.571429-29.142857-142 29.142857-142 78-116.571429 116.571429-78 142-29.142857l438.857143 0q74.285714 0 142 29.142857t116.571429 78 78 116.571429 29.142857 142z" p-id="3123" fill="#2c2c2c"></path></svg>